<svg width="14" height="16" viewBox="0 0 14 16" fill="none" xmlns="http://www.w3.org/2000/svg">
<path d="M2.9061 5.41401H11.5605V11.6924C11.5605 12.2668 11.0981 12.7308 10.5333 12.7308H9.8245V14.87C9.8245 15.4076 9.3925 15.8396 8.8549 15.8396C8.3173 15.8396 7.8821 15.406 7.8821 14.87V12.7292H6.5829V14.8684C6.5829 15.4044 6.1477 15.838 5.6101 15.838C5.0837 15.838 4.6485 15.4044 4.6485 14.8684L4.6405 12.7292H3.9429C3.3685 12.7292 2.9061 12.2668 2.9061 11.6908V5.41401ZM1.5669 5.23481C1.0309 5.23481 0.595703 5.67001 0.595703 6.19641V10.2508C0.595703 10.7884 1.0309 11.2204 1.5669 11.2204C2.1029 11.2204 2.5285 10.7868 2.5285 10.2508V6.19641C2.5285 5.66841 2.0965 5.23481 1.5669 5.23481ZM11.5877 5.07481H2.8677C2.8677 3.57561 3.7637 2.27481 5.0933 1.59641L4.4229 0.362811C4.3845 0.295611 4.4037 0.210811 4.4693 0.174011C4.5349 0.145211 4.6213 0.164411 4.6581 0.231611L5.3365 1.47641C5.9125 1.22041 6.5541 1.07961 7.2325 1.07961C7.9109 1.07961 8.5509 1.22041 9.1285 1.47481L9.8069 0.230011C9.8453 0.162811 9.9301 0.145211 9.9957 0.172411C10.0629 0.210811 10.0805 0.295611 10.0421 0.361211L9.3717 1.59481C10.6917 2.27321 11.5877 3.57561 11.5877 5.07481ZM5.6101 3.13241C5.6101 2.93401 5.4501 2.76441 5.2437 2.76441C5.0437 2.76441 4.8853 2.93401 4.8853 3.13241C4.8853 3.32921 5.0453 3.49881 5.2437 3.49881C5.4501 3.50041 5.6101 3.33081 5.6101 3.13241ZM9.5797 3.13241C9.5797 2.93401 9.4197 2.76441 9.2213 2.76441C9.0133 2.76441 8.8549 2.93401 8.8549 3.13241C8.8549 3.32921 9.0149 3.49881 9.2213 3.49881C9.4197 3.50041 9.5797 3.33081 9.5797 3.13241ZM12.8981 5.23481C12.3701 5.23481 11.9365 5.65881 11.9365 6.19641V10.2508C11.9365 10.7884 12.3685 11.2204 12.8981 11.2204C13.4341 11.2204 13.8693 10.7868 13.8693 10.2508V6.19641C13.8693 5.65881 13.4357 5.23481 12.8981 5.23481Z" fill="white"/>
</svg>
