<svg width="14" height="16" viewBox="0 0 14 16" fill="none" xmlns="http://www.w3.org/2000/svg">
<path d="M2.67368 5.41401H11.3281V11.6924C11.3281 12.2668 10.8657 12.7308 10.3009 12.7308H9.59208V14.87C9.59208 15.4076 9.16008 15.8396 8.62248 15.8396C8.08488 15.8396 7.64968 15.406 7.64968 14.87V12.7292H6.35048V14.8684C6.35048 15.4044 5.91528 15.838 5.37768 15.838C4.85128 15.838 4.41608 15.4044 4.41608 14.8684L4.40808 12.7292H3.71048C3.13608 12.7292 2.67368 12.2668 2.67368 11.6908V5.41401ZM1.33448 5.23481C0.798481 5.23481 0.363281 5.67001 0.363281 6.19641V10.2508C0.363281 10.7884 0.798481 11.2204 1.33448 11.2204C1.87048 11.2204 2.29608 10.7868 2.29608 10.2508V6.19641C2.29608 5.66841 1.86408 5.23481 1.33448 5.23481ZM11.3553 5.07481H2.63528C2.63528 3.57561 3.53128 2.27481 4.86088 1.59641L4.19048 0.362811C4.15208 0.295611 4.17128 0.210811 4.23688 0.174011C4.30248 0.145211 4.38888 0.164411 4.42568 0.231611L5.10408 1.47641C5.68008 1.22041 6.32168 1.07961 7.00008 1.07961C7.67848 1.07961 8.31848 1.22041 8.89608 1.47481L9.57448 0.230011C9.61288 0.162811 9.69768 0.145211 9.76328 0.172411C9.83048 0.210811 9.84808 0.295611 9.80968 0.361211L9.13928 1.59481C10.4593 2.27321 11.3553 3.57561 11.3553 5.07481ZM5.37768 3.13241C5.37768 2.93401 5.21768 2.76441 5.01128 2.76441C4.81128 2.76441 4.65288 2.93401 4.65288 3.13241C4.65288 3.32921 4.81288 3.49881 5.01128 3.49881C5.21768 3.50041 5.37768 3.33081 5.37768 3.13241ZM9.34728 3.13241C9.34728 2.93401 9.18728 2.76441 8.98888 2.76441C8.78088 2.76441 8.62248 2.93401 8.62248 3.13241C8.62248 3.32921 8.78248 3.49881 8.98888 3.49881C9.18728 3.50041 9.34728 3.33081 9.34728 3.13241ZM12.6657 5.23481C12.1377 5.23481 11.7041 5.65881 11.7041 6.19641V10.2508C11.7041 10.7884 12.1361 11.2204 12.6657 11.2204C13.2017 11.2204 13.6369 10.7868 13.6369 10.2508V6.19641C13.6369 5.65881 13.2033 5.23481 12.6657 5.23481Z" fill="#333333"/>
</svg>
