<svg width="14" height="16" viewBox="0 0 14 16" fill="none" xmlns="http://www.w3.org/2000/svg">
<path d="M11.3559 8.50097C11.3559 7.14417 12.0807 5.98417 13.1095 5.49617C12.8231 5.12177 12.4391 4.76977 11.9223 4.40177C11.2535 3.92497 9.77191 3.87057 8.80071 4.11857C8.06311 4.30577 7.43431 4.66737 7.09831 4.68337C6.79431 4.69937 6.14151 4.29297 5.39591 4.11857C4.49671 3.90737 3.51591 4.02577 2.84231 4.40177C0.883912 5.49617 0.570312 6.61457 0.570312 8.92497C0.570312 11.5874 1.53511 13.845 3.69191 15.429C4.16551 15.7762 5.01671 15.981 5.67911 15.7122C6.24871 15.4802 6.55271 15.197 7.09831 15.1474C7.89511 15.0754 8.26631 15.3426 8.65031 15.581C8.99911 15.797 9.80391 15.9714 10.2199 15.7138C11.6775 14.8114 12.8247 13.3362 13.4311 11.6338C12.2343 11.2498 11.3559 9.99377 11.3559 8.50097ZM9.65191 2.42257C10.2311 1.51377 10.2327 0.155369 10.2199 0.160169C9.97991 0.240169 9.17031 0.051369 7.94951 1.00817C7.52391 1.34257 7.00071 2.16497 6.81351 2.70417C6.67111 3.11377 6.53191 4.11697 6.52871 4.11857C6.51431 4.12017 7.46471 4.06737 7.94791 3.83537C8.44391 3.59857 9.27751 3.01137 9.65191 2.42257Z" fill="#333333"/>
</svg>
