<svg width="14" height="16" viewBox="0 0 14 16" fill="none" xmlns="http://www.w3.org/2000/svg">
<path d="M11.5883 8.50097C11.5883 7.14417 12.3131 5.98417 13.3419 5.49617C13.0555 5.12177 12.6715 4.76977 12.1547 4.40177C11.4859 3.92497 10.0043 3.87057 9.03313 4.11857C8.29553 4.30577 7.66673 4.66737 7.33073 4.68337C7.02673 4.69937 6.37393 4.29297 5.62833 4.11857C4.72913 3.90737 3.74833 4.02577 3.07473 4.40177C1.11633 5.49617 0.802734 6.61457 0.802734 8.92497C0.802734 11.5874 1.76753 13.845 3.92433 15.429C4.39793 15.7762 5.24913 15.981 5.91153 15.7122C6.48113 15.4802 6.78513 15.197 7.33073 15.1474C8.12753 15.0754 8.49873 15.3426 8.88273 15.581C9.23153 15.797 10.0363 15.9714 10.4523 15.7138C11.9099 14.8114 13.0571 13.3362 13.6635 11.6338C12.4667 11.2498 11.5883 9.99377 11.5883 8.50097ZM9.88433 2.42257C10.4635 1.51377 10.4651 0.155369 10.4523 0.160169C10.2123 0.240169 9.40273 0.051369 8.18193 1.00817C7.75633 1.34257 7.23313 2.16497 7.04593 2.70417C6.90353 3.11377 6.76433 4.11697 6.76113 4.11857C6.74673 4.12017 7.69713 4.06737 8.18033 3.83537C8.67633 3.59857 9.50993 3.01137 9.88433 2.42257Z" fill="white"/>
</svg>
