<svg width="113" height="28" viewBox="0 0 113 28" fill="none" xmlns="http://www.w3.org/2000/svg">
<g clip-path="url(#clip0_3820_39913)">
<path d="M60.333 6.55221C59.0291 5.77516 57.5277 5.38006 55.8814 5.38006C54.2351 5.38006 52.7864 5.77516 51.4628 6.54563C50.1458 7.31609 49.0922 8.36312 48.3217 9.65381C47.5446 10.9577 47.1495 12.4262 47.1495 14.0198C47.1495 15.6134 47.5446 17.0818 48.3217 18.3923C49.0922 19.6961 50.1392 20.7498 51.443 21.5268C52.7535 22.317 54.2549 22.7187 55.8814 22.7187C57.508 22.7187 59.0094 22.317 60.3198 21.5268C61.6237 20.7432 62.6707 19.6896 63.428 18.3857C64.1919 17.0753 64.5804 15.6068 64.5804 14.0132C64.5804 12.4196 64.1919 10.984 63.428 9.67357C62.6707 8.36971 61.6237 7.31609 60.333 6.54563V6.55221ZM60.0498 16.4892C59.6152 17.2399 59.0489 17.8194 58.3048 18.2672C57.5804 18.7084 56.7836 18.9257 55.8748 18.9257C54.9661 18.9257 54.1693 18.7084 53.4449 18.2672C52.7008 17.8128 52.1279 17.2333 51.6801 16.4826C51.2455 15.7451 51.0282 14.9548 51.0282 14.0593C51.0282 13.1637 51.2389 12.3735 51.6801 11.6359C52.1213 10.8852 52.7008 10.2992 53.4449 9.85136C54.1693 9.41016 54.9661 9.19285 55.8748 9.19285C56.7836 9.19285 57.5804 9.41016 58.3048 9.85136C59.0423 10.2992 59.6152 10.8852 60.0498 11.6294C60.4779 12.3669 60.6886 13.1637 60.6886 14.0593C60.6886 14.9548 60.4779 15.7516 60.0498 16.4892Z" fill="#222631"/>
<path d="M80.5164 6.55221C79.2126 5.77516 77.7112 5.38006 76.0649 5.38006C74.4186 5.38006 72.9765 5.76858 71.6529 6.53246C70.3358 7.29633 69.2756 8.33678 68.5052 9.62747C67.7281 10.9313 67.333 12.413 67.333 14.0198V27.9934H71.2248V21.0922C71.4948 21.3029 71.7846 21.4939 72.0809 21.6717C73.2926 22.3895 74.6557 22.7516 76.1242 22.7516C77.7573 22.7516 79.2455 22.3565 80.5494 21.5795C81.8466 20.809 82.8871 19.7422 83.6378 18.4252C84.3885 17.1082 84.7704 15.6265 84.7704 14.0198C84.7704 12.413 84.3819 10.9906 83.6181 9.68015C82.8608 8.37629 81.8137 7.32267 80.523 6.55221H80.5164ZM80.2333 16.5024C79.7987 17.2596 79.2323 17.8457 78.4948 18.2935C77.7704 18.7347 76.9736 18.952 76.0649 18.952C75.1562 18.952 74.3593 18.7347 73.635 18.2935C72.8909 17.8457 72.318 17.2531 71.8768 16.4958C71.4421 15.7516 71.2248 14.9483 71.2248 14.0527C71.2248 13.1571 71.4355 12.3603 71.8702 11.6294C72.3114 10.8786 72.8909 10.2926 73.635 9.84478C74.3593 9.40357 75.1562 9.18626 76.0649 9.18626C76.9736 9.18626 77.7704 9.40357 78.4948 9.84478C79.2323 10.2926 79.8053 10.8786 80.2399 11.6228C80.6679 12.3603 80.8786 13.1571 80.8786 14.0527C80.8786 14.9483 80.6679 15.7582 80.2399 16.5024H80.2333Z" fill="#222631"/>
<path d="M112 6.01882H108.108V22.7253H112V6.01882Z" fill="#222631"/>
<path d="M112.079 1.56068C111.875 1.20508 111.605 0.92192 111.269 0.711195C110.584 0.283162 109.629 0.256821 108.872 0.69144C108.503 0.902164 108.207 1.1985 107.996 1.56726C107.786 1.92945 107.68 2.33772 107.68 2.77893C107.68 3.22013 107.786 3.62841 107.996 3.99059C108.207 4.35936 108.503 4.65569 108.872 4.86642C109.234 5.07714 109.636 5.1825 110.051 5.1825C110.505 5.1825 110.913 5.07056 111.269 4.84666C111.598 4.63594 111.868 4.35278 112.072 3.99718C112.283 3.635 112.389 3.22672 112.389 2.78551C112.389 2.34431 112.283 1.93603 112.072 1.57385L112.079 1.56068Z" fill="#222631"/>
<path d="M101.049 0.368767L101.029 6.99341C100.752 6.78269 100.463 6.58513 100.153 6.40734C98.9416 5.70273 97.585 5.34713 96.1165 5.34713C94.5098 5.34713 93.0347 5.73565 91.7308 6.49953C90.4336 7.2634 89.3931 8.31044 88.6424 9.62088C87.8917 10.9313 87.5098 12.4196 87.5098 14.0461C87.5098 15.6726 87.8983 17.0753 88.6622 18.3857C89.4195 19.6896 90.4665 20.7498 91.7703 21.5268C93.0808 22.317 94.5822 22.7187 96.2087 22.7187C97.8353 22.7187 99.3301 22.3302 100.641 21.5663C101.944 20.8024 102.998 19.7554 103.775 18.4516C104.552 17.1411 104.947 15.6529 104.947 14.0461V0.368767H101.055H101.049ZM100.41 16.4826C99.9754 17.2267 99.4025 17.8128 98.6584 18.2606C97.9209 18.7018 97.1241 18.9191 96.2087 18.9191C95.2934 18.9191 94.5032 18.7018 93.7788 18.2606C93.0413 17.8128 92.4684 17.2267 92.0338 16.4826C91.6057 15.7451 91.395 14.9483 91.395 14.0527C91.395 13.1571 91.6057 12.3471 92.0338 11.603C92.4684 10.8457 93.0347 10.2596 93.7722 9.81185C94.4966 9.37065 95.2934 9.15334 96.2021 9.15334C97.1109 9.15334 97.9143 9.37065 98.6518 9.81185C99.3959 10.2596 99.9688 10.8457 100.403 11.603C100.831 12.3537 101.042 13.1571 101.042 14.0593C101.042 14.9614 100.831 15.7516 100.403 16.4892L100.41 16.4826Z" fill="#222631"/>
<path d="M40.2615 6.75635C39.1025 6.04516 37.7196 5.68297 36.1458 5.68297C34.9078 5.68297 33.7488 5.93979 32.7017 6.45343C32.3132 6.6444 31.9445 6.86171 31.6086 7.10536V0.144873H27.7168V22.7253H31.6086V14.3293C31.6086 13.3678 31.7996 12.5052 32.1749 11.7742C32.5503 11.0499 33.0508 10.5033 33.7093 10.0884C34.3612 9.68015 35.079 9.4826 35.9021 9.4826C36.8109 9.4826 37.5286 9.68015 38.1081 10.0884C38.7074 10.5099 39.142 11.0499 39.4449 11.7413C39.761 12.4657 39.9191 13.2822 39.9191 14.1712V22.7187H43.8109V14.0132C43.8109 12.3932 43.5145 10.9511 42.9219 9.72625C42.316 8.4619 41.4205 7.46096 40.2549 6.74318L40.2615 6.75635Z" fill="#222631"/>
<path d="M22.6135 7.21072H15.3567C13.1112 7.21072 10.9578 6.34149 9.39056 4.80056C9.25886 4.66886 9.02838 4.76105 9.02838 4.93885V13.2493C9.02838 13.6839 8.48181 13.9012 8.16573 13.5917L1.25133 6.96049C-1.42223 4.39229 0.474289 0 4.25416 0H13.447C14.9418 0 16.3774 0.572907 17.4376 1.58702L22.8111 6.74976C22.9889 6.92098 22.8638 7.21731 22.6069 7.21731" fill="url(#paint0_linear_3820_39913)"/>
<path d="M18.6491 22.9031H9.44963C7.94822 22.9031 6.51266 22.3302 5.45245 21.3161L0.085567 16.1533C-0.0922317 15.9821 0.0328859 15.6858 0.289706 15.6858H7.52677C9.7723 15.6858 11.9191 16.555 13.4929 18.096C13.6246 18.2277 13.8551 18.1355 13.8551 17.9577L13.8683 9.64722C13.8683 9.21261 14.4148 9.00188 14.7309 9.3048L21.3819 15.6924L21.6453 15.9492C24.3189 18.5174 22.4223 22.9031 18.6425 22.9031" fill="#222631"/>
</g>
<defs>
<linearGradient id="paint0_linear_3820_39913" x1="0.057318" y1="6.9622" x2="23.0371" y2="6.9622" gradientUnits="userSpaceOnUse">
<stop stop-color="#FED500"/>
<stop offset="1" stop-color="#FEC20E"/>
</linearGradient>
<clipPath id="clip0_3820_39913">
<rect width="112.395" height="28" fill="white"/>
</clipPath>
</defs>
</svg>
